<svg xmlns="http://www.w3.org/2000/svg" viewBox="0 0 116.36 22.08"><defs><style>.cls-1{fill:#fff;}</style></defs><g id="Layer_2" data-name="Layer 2"><g id="Layer_1-2" data-name="Layer 1"><path class="cls-1" d="M14.82,5.63V.3H0V5.63H4.45v16h5.92v-16ZM21.93,8H16.6V21.64h5.33ZM47.31,21.64V11.83A4,4,0,0,0,43,7.56c-1.87,0-2.94.8-4.27,2.13A4.26,4.26,0,0,0,35,7.56a6.05,6.05,0,0,0-4.74,2.13h-.06V8H24.9V21.64h5.33V14.23c0-1.07.54-1.87,1.6-1.87s1.6.8,1.6,1.87v7.41h5.34V14.23c0-1.07.53-1.87,1.6-1.87s1.6.8,1.6,1.87v7.41Zm17.93-5.49c0-6.37-3.86-8.59-7.71-8.59-5,0-8,3.11-8,7.26s3,7.26,8,7.26A8.33,8.33,0,0,0,64.35,19L60.2,16.9a3.24,3.24,0,0,1-2.67,1.18,2.4,2.4,0,0,1-2.37-1.93ZM59.9,13.34H55.16a2.07,2.07,0,0,1,2.37-1.78,2.07,2.07,0,0,1,2.37,1.78M72.94,0H67.61V21.64h5.33Zm8.3,8H75.91V21.64h5.33ZM98.43,21.64V12.3c0-2.67-1.18-4.74-4.44-4.74A5.16,5.16,0,0,0,89.6,9.63h-.06V8H84.21V21.64h5.33V14.38c0-1.19.45-2.08,1.78-2.08s1.78.89,1.78,2.08v7.26Zm17.93-5.49c0-6.37-3.85-8.59-7.7-8.59-5,0-8,3.11-8,7.26s3,7.26,8,7.26A8.33,8.33,0,0,0,115.48,19l-4.15-2.07a3.25,3.25,0,0,1-2.67,1.18,2.4,2.4,0,0,1-2.37-1.93ZM111,13.34h-4.74a2.47,2.47,0,0,1,4.74,0"/><path class="cls-1" d="M22.22,3.07a3,3,0,1,1-3-3,3,3,0,0,1,3,3"/><path class="cls-1" d="M81.53,3.07a3,3,0,1,1-3-3,3,3,0,0,1,3,3"/></g></g></svg>